{"title":"Tokarev (2014) 1080p x264 DD 5.1 { GPR } Download","uid":10541901,"size":2397402918,"categoryP":"video","categoryS":"hd___movies","magnet":"?xt=urn:btih:d6b34485a2c2b9e586b7b2433a778a09e8a38015&amp;dn=Tokarev+%282014%29+1080p+x264+DD+5.1+%7B+GPR+%7D+Download&amp;tr=udp%3A%2F%2Ftracker.openbittorrent.com%3A80&amp;tr=udp%3A%2F%2Fopen.demonii.com%3A1337&amp;tr=udp%3A%2F%2Ftracker.coppersurfer.tk%3A6969&amp;tr=udp%3A%2F%2Fexodus.desync.com%3A6969","seeders":1,"leechers":0,"uploader":"GamePersia","files":2,"time":1405238303,"description":"Rage (2014) 1080p x264 DD5.1 {GPR} Download\n\n\n\n[img]http://i.imgur.com/o7BTnAf.png[/img]\n\nDirector: Paco Cabezas\nWriters: Jim Agnew, Sean Keller\nStars: Nicolas Cage, Rachel Nichols, Max Ryan\nWhen the daughter of a reformed criminal is kidnapped, he rounds up his old crew and seeks his own brand of justice.\n\n[img]http://i.imgur.com/fVdkiiC.png[/img]\n\n[b]General[/b]\n\nFormat                                   : Matroska\nFormat version                           : Version 4 / Version 2\nFile size                                : 2.23 GiB\nDuration                                 : 1h 38mn\nOverall bit rate                         : 3 246 Kbps\n\n[b]Video[/b]\nID                                       : 1\nFormat                                   : AVC\nFormat/Info                              : Advanced Video Codec\nFormat profile                           : &lt;a class=&quot;__cf_email__&quot; href=&quot;/cdn-cgi/l/email-protection&quot; data-cfemail=&quot;4d05242a250d0179637c&quot;&gt;[email&amp;#160;protected]&lt;/a&gt;&lt;script cf-hash='f9e31' type=&quot;text/javascript&quot;&gt;\n/* &lt;![CDATA[ */!function(){try{var t=&quot;currentScript&quot;in document?document.currentScript:function(){for(var t=document.getElementsByTagName(&quot;script&quot;),e=t.length;e--;)if(t[e].getAttribute(&quot;cf-hash&quot;))return t[e]}();if(t&amp;&amp;t.previousSibling){var e,r,n,i,c=t.previousSibling,a=c.getAttribute(&quot;data-cfemail&quot;);if(a){for(e=&quot;&quot;,r=parseInt(a.substr(0,2),16),n=2;a.length-n;n+=2)i=parseInt(a.substr(n,2),16)^r,e+=String.fromCharCode(i);e=document.createTextNode(e),c.parentNode.replaceChild(e,c)}}}catch(u){}}();/* ]]&gt; */&lt;/script&gt;\nFormat settings, CABAC                   : Yes\nFormat settings, ReFrames                : 5 frames\nCodec ID                                 : V_MPEG4/ISO/AVC\nDuration                                 : 1h 38mn\nBit rate                                 : 2 609 Kbps\nWidth                                    : 1 920 pixels\nHeight                                   : 816 pixels\nDisplay aspect ratio                     : 2.35:1\nFrame rate mode                          : Constant\nFrame rate                               : 23.976 fps\nColor space                              : YUV\nChroma subsampling                       : 4:2:0\nBit depth                                : 8 bits\nScan type                                : Progressive\nBits/(Pixel*Frame)                       : 0.069\nStream size                              : 1.75 GiB (78%)\nLanguage                                 : English\nDefault                                  : Yes\nForced                                   : No\n\n[b]Audio[/b]\nID                                       : 2\nFormat                                   : AC-3\nFormat/Info                              : Audio Coding 3\nMode extension                           : CM (complete main)\nFormat settings, Endianness              : Big\nCodec ID                                 : A_AC3\nDuration                                 : 1h 38mn\nBit rate mode                            : Constant\nBit rate                                 : 640 Kbps\nChannel(s)                               : 6 channels\nChannel positions                        : Front: L C R, Side: L R, LFE\nSampling rate                            : 48.0 KHz\nBit depth                                : 16 bits\nCompression mode                         : Lossy\nStream size                              : 451 MiB (20%)\nLanguage                                 : English\n\n[img]http://i.imgur.com/L89zYC1.png[/img]\n\n[img]http://i.imgur.com/7Klw4mk.jpg[/img]\n[img]http://i.imgur.com/Mtw2qVh.jpg[/img]\n\n[img]http://i.imgur.com/1fje94Z.png[/img]\n\nSeed Atleast 900 Mb To Aid The Files For Future Downloads Also\nIf You Like Our Work For You, Appreciate Us By Writing A Comment","torrent":{"xt":"urn:btih:d6b34485a2c2b9e586b7b2433a778a09e8a38015","amp;dn":"Tokarev+%282014%29+1080p+x264+DD+5.1+%7B+GPR+%7D+Download","amp;tr":["udp%3A%2F%2Ftracker.openbittorrent.com%3A80","udp%3A%2F%2Fopen.demonii.com%3A1337","udp%3A%2F%2Ftracker.coppersurfer.tk%3A6969","udp%3A%2F%2Fexodus.desync.com%3A6969"],"infoHash":"d6b34485a2c2b9e586b7b2433a778a09e8a38015","infoHashBuffer":{"type":"Buffer","data":[214,179,68,133,162,194,185,229,134,183,178,67,58,119,138,9,232,163,128,21]},"announce":[],"urlList":[]}}